<?xml version="1.0" encoding="utf-8"?>
<!-- Generator: Adobe Illustrator 21.1.0, SVG Export Plug-In . SVG Version: 6.00 Build 0)  -->
<svg version="1.1" id="Layer_1" xmlns="http://www.w3.org/2000/svg" xmlns:xlink="http://www.w3.org/1999/xlink" x="0px" y="0px"
	 viewBox="0 0 161.5 102" style="enable-background:new 0 0 161.5 102;" xml:space="preserve">
<style type="text/css">
	.st0{opacity:0.27;}
</style>
<title>Untitled-1</title>
<g>
	<path class="st0" d="M52.7,30.3c-0.4,0.1-0.8,0.4-0.7,0.9c0,0,0,0,0,0l3.2,24.5c0.1,0.4,0.4,0.8,0.9,0.7c0,0,0,0,0,0l3.2-0.4
		l-3.4-26.1L52.7,30.3z"/>
	<path class="st0" d="M58.9,29.5l-2,0.3l3.4,26.1l2-0.3c1.1-0.1,1.7-2,1.5-4.2l-2.4-18.1C61.1,31,60,29.3,58.9,29.5z"/>
	<path class="st0" d="M51.8,52l2-0.3l-2.1-16.3l-2,0.3c-1.2,0.3-2,1.5-1.7,2.8l1.5,11.4C49.5,51,50.5,52,51.8,52z"/>
	<path class="st0" d="M108.2,30.3c0.4,0.1,0.8,0.4,0.7,0.9c0,0,0,0,0,0l-3.2,24.5c-0.1,0.4-0.4,0.8-0.9,0.7c0,0,0,0,0,0l-3.2-0.4
		l3.4-26.1L108.2,30.3z"/>
	<path class="st0" d="M102,29.5l2,0.3l-3.4,26.1l-2-0.3c-1.1-0.1-1.7-2-1.5-4.2l2.4-18.1C99.8,31,100.9,29.3,102,29.5z"/>
	<path class="st0" d="M109.1,52l-2-0.3l2.1-16.3l2,0.3c1.2,0.3,2,1.5,1.7,2.8l-1.5,11.4C111.4,51,110.4,52,109.1,52z"/>
	<path class="st0" d="M80.4,0C64.7,0,52,12.7,52,28.5l0.3,0.6l4.7-0.6v-3.7h-2c2-14.1,15.1-23.9,29.2-21.9
		c11.4,1.6,20.3,10.6,21.9,21.9h-2v3.7l4.7,0.6l0.2-0.6C108.9,12.7,96.2,0,80.4,0z"/>
	<path class="st0" d="M70.6,30.5c-0.8,0-1.4,0.6-1.4,1.4l0,0v14c-0.1,0.8,0.5,1.5,1.3,1.6c0.8,0.1,1.5-0.5,1.6-1.3
		c0-0.1,0-0.2,0-0.3v-14C72,31.1,71.4,30.5,70.6,30.5z"/>
	<path class="st0" d="M75.5,33.7c-0.8,0-1.4,0.6-1.4,1.4l0,0v7.5c0.1,0.8,0.8,1.3,1.6,1.3c0.7-0.1,1.2-0.6,1.3-1.3v-7.5
		C76.9,34.3,76.3,33.7,75.5,33.7z"/>
	<path class="st0" d="M80.4,26.1c-0.8,0-1.4,0.6-1.4,1.4l0,0v22.7c-0.1,0.8,0.5,1.5,1.3,1.6c0.8,0.1,1.5-0.5,1.6-1.3
		c0-0.1,0-0.2,0-0.3V27.5C81.9,26.7,81.2,26.1,80.4,26.1z"/>
	<path class="st0" d="M85.4,30.5c-0.8,0-1.4,0.6-1.4,1.4l0,0v14c0.1,0.8,0.8,1.3,1.6,1.3c0.7-0.1,1.2-0.6,1.3-1.3v-14
		C86.8,31.1,86.2,30.5,85.4,30.5z"/>
	<path class="st0" d="M90.3,32.9c-0.8,0-1.4,0.6-1.4,1.4l0,0v9.1c0.1,0.8,0.8,1.3,1.6,1.3c0.7-0.1,1.2-0.6,1.3-1.3v-9.1
		C91.7,33.5,91.1,32.9,90.3,32.9z"/>
	<path class="st0" d="M108.5,26.9c10.6-7.9,22.7-10.1,35.5-9.4l2.3,49.3c-34,0-60.5,8-75.2,28.9c6.5-18.9,28.4-30.9,67.2-35.4
		c-0.5-12.7-0.9-25.4-1.3-38.1C126.8,21,117.5,23.3,108.5,26.9z"/>
	<path class="st0" d="M146.9,34.8l0.3,5l3.9-0.1c0.6,11.9,1.1,23.7,1.7,35.6c-32.8-3.8-60.3,2.1-81.2,21
		c25.9-15.3,55.5-19.3,88.9-12.9c-0.8-16.2-1.6-32.5-2.4-48.7L146.9,34.8z"/>
	<path class="st0" d="M160.7,85.5c0.3,5.5,0.5,11,0.8,16.5c-28.6-10-57.8-14.6-88.9-5.1c24.1-11.9,51.2-13.1,80.6-5.4l0.4-7.3
		L160.7,85.5z"/>
	<path class="st0" d="M53,26.9C42.4,19,30.3,16.8,17.5,17.5c-0.8,16.4-1.5,32.8-2.3,49.3c24.5,0,45.1,4.2,60.3,14.3
		c0.8-0.9,1.7-1.7,2.6-2.5c-11.3-9.2-29.5-15.3-54.8-18.3c0.4-12.7,0.9-25.4,1.3-38.1C34.7,21,44,23.3,53,26.9z"/>
	<path class="st0" d="M14.6,34.8l-0.3,5l-3.9-0.1C9.8,51.5,9.2,63.4,8.7,75.2c24.6-2.9,46.2-0.3,64.2,9.1c-0.6,0.9-1.3,1.9-1.9,2.9
		c-21.2-7.7-44.5-8.8-70-4c0.8-16.2,1.7-32.5,2.4-48.7L14.6,34.8z"/>
	<path class="st0" d="M0.8,85.5L0,102c22.1-7.8,44.7-12.3,68.1-9.5l0,0c0.5-1,0.9-1.9,1.4-2.7c-19-4.8-39.5-4-61.2,1.7l-0.4-7.3
		L0.8,85.5z"/>
</g>
</svg>
