<svg xmlns="http://www.w3.org/2000/svg" viewBox="0 0 1920 1344"><defs><style>.cls-1{fill:#44acf5;}.cls-2{fill:#73c1f8;}.cls-3{fill:#92cdf7;}.cls-4{fill:#afdaf9;}.cls-5{fill:#6dbef7;}.cls-6{fill:#7ec4f6;}.cls-7{fill:#68bcf8;}.cls-8{fill:#83c6f5;}.cls-9{fill:#aedaf9;}.cls-10{fill:#72c0f8;}.cls-11{fill:#6fbff7;}.cls-12{fill:#a9d7f8;}.cls-13{fill:#9dd2f8;}.cls-14{fill:#a4d5f8;}.cls-15{fill:#8ccaf6;}.cls-16{fill:#a3d4f8;}.cls-17{fill:#8bc9f6;}.cls-18{fill:#78c2f8;}.cls-19{fill:#91cdf7;}.cls-20{fill:#94cef7;}.cls-21{fill:#8ac9f6;}.cls-22{fill:#79c3f8;}.cls-23{fill:#98cff7;}.cls-24{fill:#6abcf7;}.cls-25{fill:#71bff8;}.cls-26{fill:#91ccf6;}.cls-27{fill:#a1d3f8;}.cls-28{fill:#84c6f6;}.cls-29{fill:#a7d7f8;}.cls-30{fill:#7cc5f8;}.cls-31{fill:#abd8f9;}.cls-32{fill:#bee1fa;}.cls-33{fill:#bbe0fa;}.cls-34{fill:#b6ddfa;}.cls-35{fill:#76c1f8;}.cls-36{fill:#77c2f8;}.cls-37{fill:#badffa;}.cls-38{fill:#b8defa;}.cls-39{fill:#b4ddf9;}.cls-40{fill:#bce0f9;}.cls-41{fill:#b3dcf9;}.cls-42{fill:#7ac3f7;}.cls-43{fill:#a7d7f9;}.cls-44{fill:#94cdf7;}.cls-45{fill:#b7defa;}.cls-46{fill:#aad8f9;}.cls-47{fill:#c8e3f7;}.cls-48{fill:#a3d5f8;}.cls-49{fill:#bcddf5;}.cls-50{fill:#badef8;}.cls-51{fill:#c7e3f7;}.cls-52{fill:#90ccf7;}.cls-53{fill:#84c7f6;}.cls-54{fill:#86c8f8;}.cls-55{fill:#75c1f8;}.cls-56{fill:#a2d4f8;}.cls-57{fill:#b2dbf9;}.cls-58{fill:#92cdf6;}.cls-59{fill:#71c0f8;}.cls-60{fill:#68bbf7;}.cls-61{fill:#d9ecfa;}.cls-62{fill:#c3e2f8;}.cls-63{fill:#cce6f8;}.cls-64{fill:#c3e2f9;}.cls-65{fill:#d3e9f9;}.cls-66{fill:#84c6f5;}.cls-67{fill:#68baf6;}.cls-68{fill:#5eb7f7;}.cls-69{fill:#57b4f6;}.cls-70{fill:#a5d5f8;}.cls-71{fill:#83c5f6;}.cls-72{fill:#66baf7;}.cls-73{fill:#c1e0f6;}.cls-74{fill:#b6ddf9;}.cls-75{fill:#a5d5f9;}.cls-76{fill:#add9f9;}.cls-77{fill:#9ed2f8;}.cls-78{fill:#9cd1f7;}.cls-79{fill:#96cff7;}.cls-80{fill:#b1d9f6;}.cls-81{fill:#c0dff6;}.cls-82{fill:#bcddf6;}.cls-83{fill:#e0effa;}.cls-84{fill:#7bc4f8;}.cls-85{fill:#95cef7;}.cls-86{fill:#9ad0f7;}.cls-87{fill:#7bc3f6;}.cls-88{fill:#83c6f6;}.cls-89{fill:#87c8f6;}.cls-90{fill:#8fcbf6;}.cls-91{fill:#45acf5;}.cls-92{fill:#fff;}</style></defs><title>default</title><g id="simplified"><g id="Layer_154" data-name="Layer 154"><polygon class="cls-1" points="1930 1448 1930 1181.79 1925.63 1177 1766 1187 1766 1448 1930 1448"/></g><g id="Layer_153" data-name="Layer 153"><polygon class="cls-2" points="1245.55 1244.7 1439.08 1448 1519.58 1448 1429.69 1171.05 1245.55 1244.7"/></g><g id="Layer_152" data-name="Layer 152"><polygon class="cls-3" points="1440.21 934.29 1245.55 1244.7 1429.69 1171.05 1440.21 934.29"/></g><g id="Layer_151" data-name="Layer 151"><polygon class="cls-4" points="251.16 29.17 109.1 166.14 398.48 187.18 251.16 29.17"/></g><g id="Layer_150" data-name="Layer 150"><polygon class="cls-5" points="1024.53 1407.85 914 1276.27 914 1448 977.77 1448 1024.53 1407.85"/></g><g id="Layer_149" data-name="Layer 149"><polygon class="cls-6" points="1024.57 1407.8 1245.14 1245 1245.55 1244.7 914.08 1276.27 1024.57 1407.8"/></g><g id="Layer_148" data-name="Layer 148"><polygon class="cls-7" points="93.32 1323.62 121.46 1448 246 1448 246 1447.84 93.32 1323.62"/></g><g id="Layer_147" data-name="Layer 147"><polygon class="cls-3" points="903.56 1186.83 1245.55 1244.7 887.78 1165.78 903.56 1186.83"/></g><g id="Layer_146" data-name="Layer 146"><polygon class="cls-8" points="1245.55 1244.7 903.56 1186.83 914.08 1276.27 1245.55 1244.7"/></g><g id="Layer_145" data-name="Layer 145"><polygon class="cls-9" points="777.29 923.76 687.85 855.37 735.2 955.33 777.29 923.76"/></g><g id="Layer_144" data-name="Layer 144"><polygon class="cls-4" points="777.29 923.76 735.2 955.33 745.72 960.59 777.29 923.76"/></g><g id="Layer_143" data-name="Layer 143"><polygon class="cls-10" points="818.55 1448 545.79 1292.12 507.88 1448 818.55 1448"/></g><g id="Layer_142" data-name="Layer 142"><polygon class="cls-11" points="1766 1349.71 1766 1171 1429.69 1171 1430 1171.05 1430 1171.21 1429.69 1171.05 1430 1448 1766 1448 1766 1350.38 1766.41 1349.93 1766 1349.71 1766 1349.71"/></g><g id="Layer_140" data-name="Layer 140"><polygon class="cls-12" points="777.29 923.76 745.72 960.59 746 996.02 777.29 923.76"/></g><g id="Layer_139" data-name="Layer 139"><polygon class="cls-13" points="777.29 923.76 746 996.02 745.53 997.02 745.72 997.42 887.78 1165.78 777.29 923.76"/></g><g id="Layer_138" data-name="Layer 138"><polygon class="cls-14" points="1398.12 755.4 1708.54 597.56 1645.4 292.41 1398.12 755.4"/></g><g id="Layer_137" data-name="Layer 137"><polygon class="cls-15" points="1803.24 318.71 1645.4 292.41 1708.54 597.56 1803.24 318.71"/></g><g id="Layer_136" data-name="Layer 136"><polygon class="cls-16" points="293.25 423.94 398.48 187.18 109.1 166.14 293.25 423.94"/></g><g id="Layer_135" data-name="Layer 135"><polygon class="cls-17" points="545.83 1292 545.79 1292.12 866.73 1249.96 745.53 997.02 545.83 1292"/></g><g id="Layer_134" data-name="Layer 134"><polygon class="cls-18" points="903.85 1448 866.73 1249.96 545.79 1292.12 818.55 1448 903.85 1448"/></g><g id="Layer_133" data-name="Layer 133"><polygon class="cls-19" points="887.78 1165.78 745.72 997.42 866.73 1249.96 887.78 1165.78"/></g><g id="Layer_132" data-name="Layer 132"><polygon class="cls-20" points="887.78 1165.78 866.73 1249.96 903.56 1186.83 887.78 1165.78"/></g><g id="Layer_131" data-name="Layer 131"><polygon class="cls-21" points="914.08 1276.27 903.56 1186.83 866.73 1249.96 914.08 1276.27"/></g><g id="Layer_130" data-name="Layer 130"><polygon class="cls-22" points="866.73 1249.96 903.85 1448 914 1448 914 1376.23 914 1276.22 866.73 1249.96"/></g><g id="Layer_128" data-name="Layer 128"><polygon class="cls-23" points="1619.1 160.88 1561.22 208.23 1645.4 292.41 1619.1 160.88"/></g><g id="Layer_127" data-name="Layer 127"><polygon class="cls-24" points="51.23 1397.32 77.2 1448 121 1448 121 1445.88 93.32 1323.62 51.23 1397.32"/></g><g id="Layer_126" data-name="Layer 126"><polygon class="cls-25" points="93 1324.18 93.32 1323.62 -10 1349 -10 1351.47 -10 1356.22 -10 1360.97 -10 1365.72 -10 1370.48 -10 1375.23 -10 1379.98 -10 1384.73 -10 1389.48 -10 1394.24 -10 1397 -3.42 1397 15.93 1397 35.28 1397 51.38 1397.06 93 1324.18"/></g><g id="Layer_124" data-name="Layer 124"><polygon class="cls-26" points="314 1044.7 157.64 1003 156.46 1002.68 93.45 1322.97 93.4 1323.23 93.32 1323.62 314 1045.15 314 1044.7"/></g><g id="Layer_123" data-name="Layer 123"><polygon class="cls-27" points="366.34 882 156.46 1002.68 314.3 1044.78 366.8 882 366.34 882"/></g><g id="Layer_122" data-name="Layer 122"><polygon class="cls-28" points="-10 1088.32 93.51 1323.62 156.74 1002.68 -10 1011.46 -10 1088.32"/></g><g id="Layer_121" data-name="Layer 121"><polygon class="cls-29" points="819 -2.22 398.1 187.18 819 418.68 819 -2.22"/></g><g id="Layer_120" data-name="Layer 120"><polygon class="cls-30" points="1930 121.12 1803.24 318.71 1930 264.39 1930 121.12"/></g><g id="Layer_119" data-name="Layer 119"><polygon class="cls-31" points="1229.76 660.7 777.29 923.76 887.78 1165.78 1229.76 660.7"/></g><g id="Layer_118" data-name="Layer 118"><polygon class="cls-32" points="929.87 623.87 777.29 923.76 1229.76 660.7 929.87 623.87"/></g><g id="Layer_117" data-name="Layer 117"><polygon class="cls-33" points="929.87 623.87 1229.76 660.7 971.96 587.04 929.87 623.87"/></g><g id="Layer_116" data-name="Layer 116"><polygon class="cls-4" points="1166.63 571.26 971.96 587.04 1229.76 660.7 1166.63 571.26"/></g><g id="Layer_115" data-name="Layer 115"><polygon class="cls-34" points="1166.63 571.26 1229.76 660.7 1645.4 292.41 1166.63 571.26"/></g><g id="Layer_114" data-name="Layer 114"><polygon class="cls-4" points="1398.12 755.4 1645.4 292.41 1229.76 660.7 1398.12 755.4"/></g><g id="Layer_113" data-name="Layer 113"><polygon class="cls-35" points="1803.24 318.71 1708.55 597.53 1930 577.79 1930 478.83 1803.24 318.71"/></g><g id="Layer_112" data-name="Layer 112"><polygon class="cls-36" points="1803.24 318.71 1930 478.83 1930 369.42 1803.24 318.71"/></g><g id="Layer_111" data-name="Layer 111"><polygon class="cls-37" points="929.87 623.87 966.7 560.74 819.38 418.68 929.87 623.87"/></g><g id="Layer_110" data-name="Layer 110"><polygon class="cls-32" points="971.96 281.89 819.38 418.68 966.7 560.74 971.96 281.89"/></g><g id="Layer_109" data-name="Layer 109"><polygon class="cls-38" points="929.87 623.87 971.96 587.04 966.7 560.74 929.87 623.87"/></g><g id="Layer_108" data-name="Layer 108"><polygon class="cls-39" points="1166.63 571.26 966.7 560.74 971.96 587.04 1166.63 571.26"/></g><g id="Layer_107" data-name="Layer 107"><polygon class="cls-39" points="971.96 281.89 966.7 560.74 1166.63 571.26 971.96 281.89"/></g><g id="Layer_106" data-name="Layer 106"><polygon class="cls-40" points="1165 -6.25 1165 -5.52 1166.59 8 1166.65 8 1167.92 -8 1165 -8 1165 -6.25"/></g><g id="Layer_105" data-name="Layer 105"><polygon class="cls-41" points="1407.17 -8 1619.1 160.88 1930 57.24 1930 25.12 1814.18 -8 1407.17 -8"/></g><g id="Layer_104" data-name="Layer 104"><polygon class="cls-42" points="1930 577.76 1708.17 597.56 1930 807.51 1930 577.76"/></g><g id="Layer_102" data-name="Layer 102"><polygon class="cls-43" points="1519.13 802.75 1708.14 598 1708.3 597.69 1398.12 755.4 1519.13 802.75"/></g><g id="Layer_101" data-name="Layer 101"><polygon class="cls-27" points="-0.99 819 156.46 1002.68 366.91 881.67 -1 818.6 -0.99 819"/></g><g id="Layer_100" data-name="Layer 100"><polygon class="cls-44" points="156.46 1002.68 -0.99 819 -1.48 819 -10 858.39 -10 867.42 -10 883.64 -10 899.87 -10 916.09 -10 932.31 -10 948.53 -10 964.75 -10 980.98 -10 997.2 -10 1011 -8.36 1011 -1.55 1011 156.45 1002.71 156.46 1002.68"/></g><g id="Layer_99" data-name="Layer 99"><polygon class="cls-45" points="1166.63 571.26 1434.95 171.4 971.96 281.89 1166.63 571.26"/></g><g id="Layer_98" data-name="Layer 98"><polygon class="cls-4" points="1166.63 8.3 971.96 281.89 1434.95 171.4 1166.63 8.3"/></g><g id="Layer_97" data-name="Layer 97"><polygon class="cls-46" points="1434.95 171.4 1167 570.7 1166.63 571.26 1167.07 571 1645.4 292.41 1434.95 171.4"/></g><g id="Layer_96" data-name="Layer 96"><polygon class="cls-47" points="1167.92 -8 1167 3.68 1167 8.53 1434.3 171 1434.67 171 1308.57 -8 1167.92 -8"/></g><g id="Layer_95" data-name="Layer 95"><polygon class="cls-48" points="1645.4 292.41 1561.22 208.23 1434.95 171.4 1435 171.43 1645.4 292.41"/></g><g id="Layer_94" data-name="Layer 94"><polygon class="cls-49" points="688 854.89 688 855.48 777.29 923.76 735.2 708.05 688 854.89"/></g><g id="Layer_93" data-name="Layer 93"><polygon class="cls-50" points="777.29 923.76 929.87 623.87 735.2 708.05 777.29 923.76"/></g><g id="Layer_92" data-name="Layer 92"><polygon class="cls-51" points="819.29 419 735.21 708 735.32 708 929.87 623.87 819.38 418.68 819.29 419"/></g><g id="Layer_91" data-name="Layer 91"><polygon class="cls-52" points="1645.4 292.41 1713.8 260.84 1619.1 160.88 1645.4 292.41"/></g><g id="Layer_90" data-name="Layer 90"><polygon class="cls-53" points="1713.8 260.84 1930 82.79 1930 57.24 1619.1 160.88 1713.8 260.84"/></g><g id="Layer_89" data-name="Layer 89"><polygon class="cls-54" points="1713.8 260.84 1645.4 292.41 1803.24 318.71 1713.8 260.84"/></g><g id="Layer_88" data-name="Layer 88"><polygon class="cls-55" points="1713.8 260.84 1803.24 318.71 1930 121.12 1930 82.79 1713.8 260.84"/></g><g id="Layer_87" data-name="Layer 87"><polygon class="cls-56" points="145.93 460.77 293 424 293.25 423.94 109.1 166.14 145.93 460.77"/></g><g id="Layer_86" data-name="Layer 86"><polygon class="cls-4" points="1814.18 -8 1930 25.12 1930 -8 1814.18 -8"/></g><g id="Layer_85" data-name="Layer 85"><polygon class="cls-57" points="819.38 418.68 971.96 281.89 914.08 50.39 819.38 418.68"/></g><g id="Layer_84" data-name="Layer 84"><polygon class="cls-4" points="903.5 44.51 819.38 -2.4 819 -2 819 418.6 819.38 418.68 914.08 50.39 903.5 44.51"/></g><g id="Layer_83" data-name="Layer 83"><polygon class="cls-4" points="971.96 281.89 1166.63 8.3 914.08 50.39 971.96 281.89"/></g><g id="Layer_82" data-name="Layer 82"><polygon class="cls-58" points="1440.21 934.29 1897.95 1028.99 1519.13 802.75 1440.21 934.29"/></g><g id="Layer_81" data-name="Layer 81"><polygon class="cls-17" points="1519.13 802.75 1897.95 1028.99 1708.73 598 1708.3 597.69 1708.14 598 1519.13 802.75"/></g><g id="Layer_80" data-name="Layer 80"><polygon class="cls-59" points="1930 981.97 1930 807.51 1708.73 598 1897.76 1028.99 1930 981.97"/></g><g id="Layer_79" data-name="Layer 79"><polygon class="cls-60" points="1897.81 1028.91 1897.78 1028.96 1930 1036.53 1930 996.53 1930 981.97 1897.81 1028.91"/></g><g id="Layer_78" data-name="Layer 78"><polygon class="cls-33" points="251.16 29.17 398.36 187.06 398.7 187 639 -7.53 639 -8 411.44 -8 251.16 29.17"/></g><g id="Layer_77" data-name="Layer 77"><polygon class="cls-61" points="251.93 29 252.65 29 411 -7.54 411 -8 334.38 -8 251.93 29"/></g><g id="Layer_76" data-name="Layer 76"><polygon class="cls-62" points="639.14 -8 398.7 187 398.88 187 819 -2.05 819 -2.56 813.24 -8 639.14 -8"/></g><g id="Layer_73" data-name="Layer 73"><polygon class="cls-63" points="914.08 50.39 916.23 -8 817.15 -8 819.38 -2.4 913.38 50 914.08 50.39"/></g><g id="Layer_72" data-name="Layer 72"><polygon class="cls-64" points="916.23 -8 914.08 50.39 916.42 50 1166.63 8.12 1127.19 -8 916.23 -8"/></g><g id="Layer_71" data-name="Layer 71"><polygon class="cls-65" points="1165.89 8 1166.59 8 1164.75 -8 1127.19 -8 1165.89 8"/></g><g id="Layer_70" data-name="Layer 70"><polygon class="cls-66" points="1440.21 934.29 1429.69 1171.05 1861.12 1186.83 1440.21 934.29"/></g><g id="Layer_69" data-name="Layer 69"><polygon class="cls-67" points="1861.12 1186.83 1429.69 1171.05 1766.41 1349.93 1861.12 1186.83"/></g><g id="Layer_68" data-name="Layer 68"><polygon class="cls-17" points="1440.21 934.29 1861.12 1186.83 1897.95 1028.99 1440.21 934.29"/></g><g id="Layer_67" data-name="Layer 67"><polygon class="cls-68" points="1897.95 1028.99 1861.12 1186.83 1930 1112.21 1930 1036.53 1897.95 1028.99"/></g><g id="Layer_66" data-name="Layer 66"><polygon class="cls-69" points="1930 1181.79 1930 1111.8 1860.74 1186.83 1930 1181.79"/></g><g id="Layer_64" data-name="Layer 64"><polygon class="cls-25" points="-10 1191.89 -10 1222.5 -10 1253.89 -10 1295.98 -10 1338.07 -10 1349 -10 1349 93.32 1323.62 -10 1191.89"/></g><g id="Layer_63" data-name="Layer 63"><polygon class="cls-55" points="93.32 1323.62 93.38 1323.33 -10 1088.32 -10 1166.15 -10 1191.89 93.32 1323.62"/></g><g id="Layer_61" data-name="Layer 61"><polygon class="cls-70" points="366.8 882 314.3 1044.78 387.95 929.03 367.05 882 366.8 882"/></g><g id="Layer_60" data-name="Layer 60"><polygon class="cls-29" points="746 996.02 745.72 960.59 735 954.91 387.95 929.03 746 996.02"/></g><g id="Layer_59" data-name="Layer 59"><polygon class="cls-15" points="145.93 460.77 109.1 166.14 -10 338.52 -10 360.65 -10 402.74 -10 444.83 -10 457.31 145.93 460.77"/></g><g id="Layer_57" data-name="Layer 57"><polygon class="cls-71" points="109.1 166.14 109 166 -10 149.12 -10 240.16 -10 338.52 109.1 166.14"/></g><g id="Layer_56" data-name="Layer 56"><polygon class="cls-15" points="-1.38 818.54 145.93 460.77 -10 457.31 -10 477.36 -10 622.57 -10 767.78 -10 783.56 -1.38 818.54"/></g><g id="Layer_54" data-name="Layer 54"><polygon class="cls-10" points="1025 1407.49 1025 1408.14 1076.14 1448 1329.86 1448 1245.55 1244.7 1025 1407.49"/></g><g id="Layer_53" data-name="Layer 53"><polygon class="cls-72" points="1329.86 1448 1439 1448 1439 1447.83 1245.55 1244.7 1329.86 1448"/></g><g id="Layer_52" data-name="Layer 52"><polygon class="cls-73" points="687.85 855.37 735.2 708.05 514.22 697.53 687.85 855.37"/></g><g id="Layer_51" data-name="Layer 51"><polygon class="cls-74" points="734.12 708 735.21 708 819.38 418.68 514.22 697.53 734.12 708"/></g><g id="Layer_50" data-name="Layer 50"><polygon class="cls-27" points="251.16 29.34 56.49 92.48 109.1 166.14 251.16 29.34"/></g><g id="Layer_49" data-name="Layer 49"><polygon class="cls-23" points="108.14 166 109.1 166.14 56.49 92.48 -10 98.75 -10 149.12 108.14 166"/></g><g id="Layer_48" data-name="Layer 48"><polygon class="cls-75" points="1229.76 660.7 887.78 1165.78 1392.86 865.89 1229.76 660.7"/></g><g id="Layer_47" data-name="Layer 47"><polygon class="cls-23" points="1392.86 865.89 887.78 1165.78 1245.55 1244.7 1392.86 865.89"/></g><g id="Layer_46" data-name="Layer 46"><polygon class="cls-76" points="1398.12 755.4 1229.76 660.7 1392.86 865.89 1398.12 755.4"/></g><g id="Layer_45" data-name="Layer 45"><polygon class="cls-27" points="1392.86 865.89 1245.55 1244.7 1440.21 934.29 1392.86 865.89"/></g><g id="Layer_44" data-name="Layer 44"><polygon class="cls-12" points="1398.12 755.4 1393 862.97 1392.86 865.89 1519 802.82 1519 802.7 1398.12 755.4"/></g><g id="Layer_43" data-name="Layer 43"><polygon class="cls-29" points="1392.86 865.89 1440.21 934.29 1518.98 803 1518.64 803 1392.86 865.89"/></g><g id="Layer_41" data-name="Layer 41"><polygon class="cls-4" points="146 460.75 146 460.82 361.65 623.87 293.25 423.94 293.02 424 146 460.75"/></g><g id="Layer_40" data-name="Layer 40"><polygon class="cls-74" points="366.91 487.08 293.25 423.94 361.65 623.87 366.91 487.08"/></g><g id="Layer_39" data-name="Layer 39"><polygon class="cls-41" points="366.91 487.08 361.65 623.87 514.22 697.53 366.91 487.08"/></g><g id="Layer_38" data-name="Layer 38"><polygon class="cls-39" points="362 624.78 366.91 881.67 424.78 786.97 362 624.78"/></g><g id="Layer_37" data-name="Layer 37"><polygon class="cls-4" points="362 624.78 424.78 786.97 514.22 697.53 514 697.42 362 624.04 362 624.78"/></g><g id="Layer_36" data-name="Layer 36"><polygon class="cls-56" points="145.84 461 -1 817.61 -1 818.33 361.65 623.87 146.24 461 145.84 461"/></g><g id="Layer_35" data-name="Layer 35"><polygon class="cls-12" points="361.65 623.87 -1 818.33 -1 818.6 366.91 881.67 362 624.04 361.65 623.87"/></g><g id="Layer_34" data-name="Layer 34"><polygon class="cls-77" points="1493.51 171 1509.07 171 1524.62 171 1539.78 171 1361.13 -8 1309 -8 1309 -7.03 1434.67 171 1446.85 171 1462.4 171 1477.96 171 1493.51 171"/></g><g id="Layer_33" data-name="Layer 33"><polygon class="cls-23" points="1361.13 -8 1539.78 171 1540.39 171.37 1619.1 160.88 1407.17 -8 1361.13 -8"/></g><g id="Layer_32" data-name="Layer 32"><polygon class="cls-78" points="1561 208 1561 207.84 1540.18 171 1434.3 171 1434.95 171.4 1560.44 208 1561 208"/></g><g id="Layer_31" data-name="Layer 31"><polygon class="cls-79" points="1540.18 171.4 1561.09 208 1561.5 208 1619 160.96 1619.1 160.88 1540.18 171.4"/></g><g id="Layer_30" data-name="Layer 30"><polygon class="cls-57" points="367 881.88 387.94 929 387.98 929 487.92 823.8 367 881.63 367 881.88"/></g><g id="Layer_29" data-name="Layer 29"><polygon class="cls-80" points="424.78 786.97 366.91 881.67 487.92 823.8 424.78 786.97"/></g><g id="Layer_28" data-name="Layer 28"><polygon class="cls-41" points="388 928.98 388 929.03 734.58 955 487.92 823.8 388 928.98"/></g><g id="Layer_26" data-name="Layer 26"><polygon class="cls-81" points="514.22 697.57 514.22 697.53 424.78 786.97 487.92 824 514.22 697.57"/></g><g id="Layer_25" data-name="Layer 25"><polygon class="cls-82" points="514.22 697.53 487.92 823.8 687.85 855.37 514.22 697.53"/></g><g id="Layer_24" data-name="Layer 24"><polygon class="cls-57" points="734.58 955 735 955 735 954.91 687.85 855.37 487.92 823.8 734.58 955"/></g><g id="Layer_23" data-name="Layer 23"><polygon class="cls-37" points="251 29.4 251.16 29.17 202.69 -8 54.05 -8 56.48 92 57.97 92 251 29.4"/></g><g id="Layer_22" data-name="Layer 22"><polygon class="cls-83" points="203 -7.41 251.16 29.17 251.93 29 334 -7.47 334 -8 203 -8 203 -7.41"/></g><g id="Layer_21" data-name="Layer 21"><polygon class="cls-84" points="1930 369.42 1930 278 1929.27 278 1803.24 318.71 1930 369.42"/></g><g id="Layer_20" data-name="Layer 20"><polygon class="cls-36" points="1803.24 318.71 1930 277.76 1930 264.39 1803.24 318.71"/></g><g id="Layer_19" data-name="Layer 19"><polygon class="cls-19" points="314 1045.15 93.32 1323.62 461.61 1265.75 314.3 1044.78 314 1044.7 314 1045.15"/></g><g id="Layer_18" data-name="Layer 18"><polygon class="cls-36" points="461.61 1265.75 93.32 1323.62 246.1 1448 427.65 1448 461.61 1265.75"/></g><g id="Layer_17" data-name="Layer 17"><polygon class="cls-85" points="314.3 1044.78 461.61 1265.75 387.95 929.03 314.3 1044.78"/></g><g id="Layer_16" data-name="Layer 16"><polygon class="cls-86" points="461.61 1265.75 744.48 999.25 746 996.02 388 929.03 388 929.24 461.61 1265.75"/></g><g id="Layer_15" data-name="Layer 15"><polygon class="cls-87" points="461.61 1265.75 428 1446.03 428 1448 491.97 1448 461.61 1265.75"/></g><g id="Layer_14" data-name="Layer 14"><polygon class="cls-88" points="491.97 1448 507.88 1448 545.79 1292.12 461.61 1265.75 491.97 1448"/></g><g id="Layer_13" data-name="Layer 13"><polygon class="cls-85" points="461.61 1265.75 545.79 1292.12 545.83 1292 744.48 999.25 461.61 1265.75"/></g><g id="Layer_12" data-name="Layer 12"><polygon class="cls-38" points="366.82 487 366.94 487 430.04 339.76 293.25 423.94 366.82 487"/></g><g id="Layer_11" data-name="Layer 11"><polygon class="cls-46" points="430.04 339.76 398.48 187.18 293.25 423.94 430.04 339.76"/></g><g id="Layer_10" data-name="Layer 10"><polygon class="cls-4" points="367 486.86 367 487.21 514.22 697.53 514 696.58 430.04 339.76 367 486.86"/></g><g id="Layer_9" data-name="Layer 9"><polygon class="cls-12" points="398.48 187.18 430.04 339.76 819 418.6 819 418.47 398.48 187.18"/></g><g id="Layer_8" data-name="Layer 8"><polygon class="cls-9" points="430.04 339.76 514.22 697.53 819.38 418.68 430.04 339.76"/></g><g id="Layer_7" data-name="Layer 7"><polygon class="cls-89" points="56 92.53 56 92.44 -10 87.46 -10 98.75 56 92.53"/></g><g id="Layer_6" data-name="Layer 6"><polygon class="cls-90" points="48.26 92.3 58.06 92.76 54.05 -8 -10 -8 -10 87.46 48.26 92.3"/></g></g><g id="Layer_3" data-name="Layer 3"><path class="cls-91" d="M831.68,1107.47s3.75,3.65,8.62,3.65c2.63,0,5-1.36,5-4.19,0-6.19-16.32-5.11-16.32-15.73,0-5.75,5-10,11.59-10,6.82,0,10.33,3.7,10.33,3.7l-2.73,5.11a12.62,12.62,0,0,0-7.65-3c-2.92,0-5.21,1.71-5.21,4.14,0,6.14,16.27,4.63,16.27,15.68,0,5.5-4.19,10.13-11.4,10.13a16.74,16.74,0,0,1-11.93-4.72Z"/><path class="cls-91" d="M858,1096.8h-3.21v-4.92h3.36v-7.16h6v7.16h5.65v4.92h-5.65v9.64c0,4.09,3.21,4.68,4.92,4.68a5.73,5.73,0,0,0,1.12-.1v5.41a10.72,10.72,0,0,1-1.9.15c-3.46,0-10.33-1-10.33-9.35Z"/><path class="cls-91" d="M887.06,1090.91c7.6,0,13.69,5.41,13.69,13s-6.09,13-13.64,13-13.69-5.36-13.69-13S879.51,1090.91,887.06,1090.91Zm0,20.75a7.75,7.75,0,1,0-7.4-7.74A7.38,7.38,0,0,0,887.11,1111.65Z"/><path class="cls-91" d="M905.72,1091.49h5.94v4.29a17,17,0,0,1-.1,1.75h.1c1.12-3.56,4.09-6.38,7.89-6.38a7.13,7.13,0,0,1,1.12.1v6.09a10.65,10.65,0,0,0-1.46-.1,7,7,0,0,0-6.77,5.21,13.31,13.31,0,0,0-.54,4v9.84h-6.19Z"/><path class="cls-91" d="M924.62,1120.32a5.42,5.42,0,0,0,2.78,1,4.69,4.69,0,0,0,4.29-3.21l.93-2.19-10.47-24.45h7l5.21,14.32a30.69,30.69,0,0,1,.93,3.36h.1s.39-1.95.83-3.26l4.87-14.42h6.77l-11.1,28.59c-1.75,4.53-5.21,6.48-9,6.48a9.55,9.55,0,0,1-5.16-1.61Z"/><path class="cls-91" d="M951.31,1081.75h6.19v10.67c0,1.22-.1,2.09-.1,2.09h.1a8.75,8.75,0,0,1,7.45-3.6c6.72,0,11,5.31,11,13,0,7.89-4.82,13-11.4,13a8.77,8.77,0,0,1-7.4-3.7h-.1a14.35,14.35,0,0,1,.1,1.71v1.41h-5.84Zm12.18,30c3.41,0,6.23-2.78,6.23-7.7,0-4.72-2.53-7.79-6.19-7.79-3.21,0-6.23,2.34-6.23,7.84C957.3,1107.9,959.35,1111.7,963.49,1111.7Z"/><path class="cls-91" d="M992.86,1090.91c7.6,0,13.69,5.41,13.69,13s-6.09,13-13.64,13-13.69-5.36-13.69-13S985.31,1090.91,992.86,1090.91Zm0,20.75a7.75,7.75,0,1,0-7.4-7.74A7.38,7.38,0,0,0,992.91,1111.65Z"/><path class="cls-91" d="M1023.3,1090.91c7.6,0,13.69,5.41,13.69,13s-6.09,13-13.64,13-13.69-5.36-13.69-13S1015.75,1090.91,1023.3,1090.91Zm0,20.75a7.75,7.75,0,1,0-7.4-7.74A7.38,7.38,0,0,0,1023.35,1111.65Z"/><path class="cls-91" d="M1042,1081.75h6.19v18.51h3.07l6-8.77h6.87l-7.84,11.1v.1l8.82,13.64h-7.11l-6.58-10.86h-3.21v10.86H1042Z"/><path class="cls-91" d="M1067.82,1100h10.52v-11.54h5V1100h10.52v4.82h-10.52v11.49h-5v-11.49h-10.52Z"/><path class="cls-92" d="M828.89,1104.68s3.75,3.65,8.62,3.65c2.63,0,5-1.36,5-4.19,0-6.19-16.32-5.11-16.32-15.73,0-5.75,5-10,11.59-10,6.82,0,10.33,3.7,10.33,3.7l-2.73,5.11a12.62,12.62,0,0,0-7.65-3c-2.92,0-5.21,1.71-5.21,4.14,0,6.14,16.27,4.63,16.27,15.68,0,5.5-4.19,10.13-11.4,10.13a16.74,16.74,0,0,1-11.93-4.72Z"/><path class="cls-92" d="M855.2,1094H852v-4.92h3.36v-7.16h6v7.16H867V1094h-5.65v9.64c0,4.09,3.21,4.68,4.92,4.68a5.73,5.73,0,0,0,1.12-.1v5.41a10.72,10.72,0,0,1-1.9.15c-3.46,0-10.33-1-10.33-9.35Z"/><path class="cls-92" d="M884.27,1088.12c7.6,0,13.69,5.41,13.69,13s-6.09,13-13.64,13-13.69-5.36-13.69-13S876.72,1088.12,884.27,1088.12Zm0,20.75a7.75,7.75,0,1,0-7.4-7.74A7.38,7.38,0,0,0,884.32,1108.87Z"/><path class="cls-92" d="M902.93,1088.7h5.94V1093a17,17,0,0,1-.1,1.75h.1c1.12-3.56,4.09-6.38,7.89-6.38a7.13,7.13,0,0,1,1.12.1v6.09a10.65,10.65,0,0,0-1.46-.1,7,7,0,0,0-6.77,5.21,13.31,13.31,0,0,0-.54,4v9.84h-6.19Z"/><path class="cls-92" d="M921.83,1117.54a5.42,5.42,0,0,0,2.78,1,4.69,4.69,0,0,0,4.29-3.21l.93-2.19-10.47-24.45h7l5.21,14.32a30.69,30.69,0,0,1,.93,3.36h.1s.39-1.95.83-3.26l4.87-14.42H945l-11.1,28.59c-1.75,4.53-5.21,6.48-9,6.48a9.55,9.55,0,0,1-5.16-1.61Z"/><path class="cls-92" d="M948.52,1079h6.19v10.67c0,1.22-.1,2.09-.1,2.09h.1a8.75,8.75,0,0,1,7.45-3.6c6.72,0,11,5.31,11,13,0,7.89-4.82,13-11.4,13a8.77,8.77,0,0,1-7.4-3.7h-.1a14.35,14.35,0,0,1,.1,1.71v1.41h-5.84Zm12.18,30c3.41,0,6.23-2.78,6.23-7.7,0-4.72-2.53-7.79-6.19-7.79-3.21,0-6.23,2.34-6.23,7.84C954.51,1105.12,956.56,1108.92,960.7,1108.92Z"/><path class="cls-92" d="M990.07,1088.12c7.6,0,13.69,5.41,13.69,13s-6.09,13-13.64,13-13.69-5.36-13.69-13S982.52,1088.12,990.07,1088.12Zm0,20.75a7.75,7.75,0,1,0-7.4-7.74A7.38,7.38,0,0,0,990.12,1108.87Z"/><path class="cls-92" d="M1020.51,1088.12c7.6,0,13.69,5.41,13.69,13s-6.09,13-13.64,13-13.69-5.36-13.69-13S1013,1088.12,1020.51,1088.12Zm0,20.75a7.75,7.75,0,1,0-7.4-7.74A7.38,7.38,0,0,0,1020.56,1108.87Z"/><path class="cls-92" d="M1039.17,1079h6.19v18.51h3.07l6-8.77h6.87l-7.84,11.1v.1l8.82,13.64h-7.11l-6.58-10.86h-3.21v10.86h-6.19Z"/><path class="cls-92" d="M1065,1097.23h10.52v-11.54h5v11.54h10.52V1102h-10.52v11.5h-5V1102H1065Z"/></g></svg>