<svg xmlns="http://www.w3.org/2000/svg" viewBox="0 0 170 32.42"><title>uwex</title><g opacity="0.27"><path d="M94.32,20.88a5.45,5.45,0,0,1,1.23,3.77v.67h-7a2.46,2.46,0,0,0,2.5,1.95,3.4,3.4,0,0,0,2.46-1L95,27.72A4.87,4.87,0,0,1,93.23,29a6.14,6.14,0,0,1-2.36.44,5.65,5.65,0,0,1-2.73-.6,4.16,4.16,0,0,1-1.76-1.74,5.16,5.16,0,0,1-.63-2.58,5.24,5.24,0,0,1,.63-2.63,4.55,4.55,0,0,1,1.77-1.74,5.38,5.38,0,0,1,2.61-.63A4.52,4.52,0,0,1,94.32,20.88Zm-1.39,2.8a2.2,2.2,0,0,0-.62-1.54,2.05,2.05,0,0,0-1.54-.58,2.12,2.12,0,0,0-1.5.58,2.64,2.64,0,0,0-.77,1.55Z" transform="translate(0 -14.79)"/><path d="M95.74,19.61h3.18l1.79,2.95,1.9-2.95h3l-3.09,4.74,3.3,5h-3.19l-2-3.18-2.13,3.18H95.51l3.36-5Z" transform="translate(0 -14.79)"/><path d="M113.27,28.79a4.69,4.69,0,0,1-1.2.5,5.37,5.37,0,0,1-1.32.17,3.1,3.1,0,0,1-2.21-.78,2.84,2.84,0,0,1-.85-2.22V22h-1.36V20h1.36V17.37h2.76V20h2.64V22h-2.64v4c0,.74.3,1.12.89,1.12a3.2,3.2,0,0,0,1.35-.36Z" transform="translate(0 -14.79)"/><path d="M122.52,20.88a5.44,5.44,0,0,1,1.22,3.77v.67h-6.95a2.53,2.53,0,0,0,.9,1.44,2.6,2.6,0,0,0,1.61.51,3.4,3.4,0,0,0,2.46-1l1.44,1.48A4.87,4.87,0,0,1,121.4,29a6.14,6.14,0,0,1-2.36.44,5.59,5.59,0,0,1-2.7-.6,4.26,4.26,0,0,1-1.78-1.74,5.2,5.2,0,0,1-.63-2.59,5.1,5.1,0,0,1,.65-2.62,4.42,4.42,0,0,1,1.77-1.74,5.34,5.34,0,0,1,2.6-.62A4.58,4.58,0,0,1,122.52,20.88Zm-1.4,2.8a2.2,2.2,0,0,0-.62-1.54,2,2,0,0,0-1.53-.58,2.17,2.17,0,0,0-1.51.58,2.7,2.7,0,0,0-.77,1.55Z" transform="translate(0 -14.79)"/><path d="M134.2,20.51a3.76,3.76,0,0,1,1,2.71v6.11h-2.78V24a2,2,0,0,0-.51-1.46,1.84,1.84,0,0,0-1.4-.53,2.07,2.07,0,0,0-1.63.72,2.64,2.64,0,0,0-.58,1.77v4.79h-2.81V19.61h2.79v1.7a3.66,3.66,0,0,1,3.36-1.81A3.45,3.45,0,0,1,134.2,20.51Z" transform="translate(0 -14.79)"/><path d="M147.05,15.92V29.33h-2.76V27.9A3.33,3.33,0,0,1,143,29.06a3.71,3.71,0,0,1-1.73.39,4.56,4.56,0,0,1-2.45-.61,4.16,4.16,0,0,1-1.61-1.74,5.9,5.9,0,0,1-.58-2.62,5.76,5.76,0,0,1,.58-2.58,4.05,4.05,0,0,1,1.59-1.74,4.42,4.42,0,0,1,2.37-.66A3.62,3.62,0,0,1,144.3,21V15.92Zm-3.44,10.53a3.12,3.12,0,0,0,0-3.89,2.43,2.43,0,0,0-3.43-.07l-.08.07a3.09,3.09,0,0,0,0,3.89,2.42,2.42,0,0,0,3.42.09Z" transform="translate(0 -14.79)"/><path d="M157.47,20.88a5.44,5.44,0,0,1,1.22,3.77v.67h-6.95a2.55,2.55,0,0,0,.91,1.44,2.58,2.58,0,0,0,1.61.51,3.53,3.53,0,0,0,1.32-.26,3.73,3.73,0,0,0,1.16-.77l1.46,1.48A4.87,4.87,0,0,1,156.4,29a6.14,6.14,0,0,1-2.36.44,5.59,5.59,0,0,1-2.75-.6,4.18,4.18,0,0,1-1.77-1.74,5.15,5.15,0,0,1-.62-2.58,5.14,5.14,0,0,1,.63-2.63,4.42,4.42,0,0,1,1.77-1.74,5.36,5.36,0,0,1,2.6-.62A4.57,4.57,0,0,1,157.47,20.88Zm-1.4,2.8a2.23,2.23,0,0,0-.61-1.54,2.05,2.05,0,0,0-1.54-.58,2.17,2.17,0,0,0-1.51.58,2.7,2.7,0,0,0-.77,1.55Z" transform="translate(0 -14.79)"/><path d="M170,15.92V29.33h-2.78V27.9a3.23,3.23,0,0,1-1.3,1.16,3.88,3.88,0,0,1-1.77.39,4.59,4.59,0,0,1-2.4-.61,4.08,4.08,0,0,1-1.6-1.74,5.64,5.64,0,0,1-.58-2.62,5.76,5.76,0,0,1,.58-2.58,4,4,0,0,1,1.59-1.74,4.46,4.46,0,0,1,2.36-.62,3.62,3.62,0,0,1,3.12,1.5V15.92Zm-3.44,10.53a2.75,2.75,0,0,0,.66-1.94,2.79,2.79,0,0,0-.68-2,2.43,2.43,0,0,0-3.43-.07l-.07.07a3.05,3.05,0,0,0,0,3.89,2.41,2.41,0,0,0,3.41.09l.09-.09Z" transform="translate(0 -14.79)"/><path d="M90.76,35.28a3.57,3.57,0,0,0-1.83.47,3.31,3.31,0,0,0-1.26,1.31,4.36,4.36,0,0,0,0,3.86,3.27,3.27,0,0,0,1.26,1.32,3.57,3.57,0,0,0,1.83.47,4.27,4.27,0,0,0,1.69-.32,3.47,3.47,0,0,0,1.29-1l.71.73a4.26,4.26,0,0,1-1.6,1.15,5.19,5.19,0,0,1-2.13.42,4.86,4.86,0,0,1-2.42-.58,4.2,4.2,0,0,1-1.67-1.7,5.3,5.3,0,0,1,0-4.93,4.27,4.27,0,0,1,1.67-1.7,4.86,4.86,0,0,1,2.42-.58,5.4,5.4,0,0,1,2,.37,4.56,4.56,0,0,1,1.56,1l-.69.81A3.9,3.9,0,0,0,90.76,35.28Z" transform="translate(0 -14.79)"/><path d="M102.78,43.72V42.13a3.54,3.54,0,0,1-1.47,1.24,5.15,5.15,0,0,1-2.08.41,3.82,3.82,0,0,1-1.69-.37A2.72,2.72,0,0,1,96,40.92,2.24,2.24,0,0,1,97,39a4.23,4.23,0,0,1,2.61-.71h3.18v-.75a2.27,2.27,0,0,0-.67-1.74,2.85,2.85,0,0,0-2-.58,5.19,5.19,0,0,0-3.06,1.16l-.51-.85a8,8,0,0,1,1.82-1,5.9,5.9,0,0,1,2-.32,3.76,3.76,0,0,1,2.65.87,3.07,3.07,0,0,1,1,2.37v6.27Zm-1.21-1.55a2.91,2.91,0,0,0,1.19-1.66V39.22H99.7a3.54,3.54,0,0,0-1.89.41,1.39,1.39,0,0,0-.65,1.26,1.67,1.67,0,0,0,.62,1.36,2.54,2.54,0,0,0,1.66.49A3.69,3.69,0,0,0,101.57,42.17Z" transform="translate(0 -14.79)"/><path d="M122.15,35.21a3.77,3.77,0,0,1,.94,2.72v5.79h-1.23V38.19a2.92,2.92,0,0,0-.73-2.11,2.66,2.66,0,0,0-2-.74,3,3,0,0,0-2.37,1,3.93,3.93,0,0,0-.86,2.67v4.64h-1.23v-5.5a2.94,2.94,0,0,0-.75-2.11,2.65,2.65,0,0,0-2-.74,3.06,3.06,0,0,0-2.39,1,3.94,3.94,0,0,0-.87,2.67v4.64h-1.21V34.25h1.21v2.22a3.39,3.39,0,0,1,1.4-1.68,4.49,4.49,0,0,1,2.27-.58,3.7,3.7,0,0,1,2.25.67,3.2,3.2,0,0,1,1.16,1.88,3.49,3.49,0,0,1,1.4-1.89,4.34,4.34,0,0,1,2.38-.66A3.51,3.51,0,0,1,122.15,35.21Z" transform="translate(0 -14.79)"/><path d="M134,34.82a4.14,4.14,0,0,1,1.62,1.7,5.12,5.12,0,0,1,.58,2.48,5,5,0,0,1-.58,2.46A4.16,4.16,0,0,1,134,43.15a4.58,4.58,0,0,1-2.35.58,4.3,4.3,0,0,1-2.27-.58,4,4,0,0,1-1.52-1.63v5.69h-1.19v-13h1.21v2.19a3.86,3.86,0,0,1,1.51-1.64,4.3,4.3,0,0,1,2.27-.58A4.63,4.63,0,0,1,134,34.82Zm-.74,7.41a3.43,3.43,0,0,0,1.26-1.33,4.34,4.34,0,0,0,0-3.85,3.43,3.43,0,0,0-1.26-1.33,3.75,3.75,0,0,0-3.67,0,3.43,3.43,0,0,0-1.26,1.33,4.3,4.3,0,0,0,0,3.85,3.36,3.36,0,0,0,1.26,1.33,3.73,3.73,0,0,0,3.66,0Z" transform="translate(0 -14.79)"/><path d="M147.13,34.25v9.47H145.9V41.46a3.59,3.59,0,0,1-1.4,1.7,4.44,4.44,0,0,1-2.25.58,3.47,3.47,0,0,1-2.63-1,3.71,3.71,0,0,1-1-2.71V34.26h1.23v5.52a2.86,2.86,0,0,0,.73,2.1,2.72,2.72,0,0,0,2,.74,3,3,0,0,0,2.39-1,4.08,4.08,0,0,0,.87-2.69V34.26Z" transform="translate(0 -14.79)"/><path d="M154.57,35.4a4.9,4.9,0,0,0-1.32-.19,2.68,2.68,0,0,0-1.46.35,1.19,1.19,0,0,0-.55,1.06,1.14,1.14,0,0,0,.3.8,2.49,2.49,0,0,0,.75.49,12.77,12.77,0,0,0,1.23.43,11.19,11.19,0,0,1,1.59.58,2.78,2.78,0,0,1,1,.81,2.13,2.13,0,0,1,.44,1.4,2.26,2.26,0,0,1-1,1.95,4.19,4.19,0,0,1-2.43.68,5.87,5.87,0,0,1-2-.35,4.29,4.29,0,0,1-1.61-1l.49-.87a4.61,4.61,0,0,0,1.45.89,4.8,4.8,0,0,0,1.71.32,2.83,2.83,0,0,0,1.56-.39,1.31,1.31,0,0,0,.61-1.16,1.23,1.23,0,0,0-.31-.86,2.08,2.08,0,0,0-.77-.53c-.3-.12-.73-.27-1.27-.44a12,12,0,0,1-1.55-.58,2.61,2.61,0,0,1-1-.78,2.06,2.06,0,0,1-.41-1.35,2.11,2.11,0,0,1,.91-1.86,4.13,4.13,0,0,1,2.32-.64,6,6,0,0,1,1.57.22,5.05,5.05,0,0,1,1.35.58l-.47.93A4.41,4.41,0,0,0,154.57,35.4Z" transform="translate(0 -14.79)"/><polygon points="55.66 13.98 60.24 18.57 62.16 16.41 55.66 9.07 55.66 13.98"/><path d="M81.06,24.54,77.65,28V23l-8.18-8.17H61v2.07l-5.3,2.71v2.77c1.64,0,4.24.05,4.24.05l7.79,8.81h0l-5.48,6.19,1.16,6.28s14.17-.22,14.33-.05l4.2-18.25ZM77,31.2h0L69.22,40s-5.53.11-5.53,0l7.79-8.8-7.79-8.81c0-.11,5.53,0,5.53,0Z" transform="translate(0 -14.79)"/><path d="M17.72,17.47V35.94c0,3.9-2.2,8-8.84,8-6,0-8.88-3.1-8.88-8V17.47H5.45V35.58c0,3.22,1.37,4.48,3.36,4.48,2.38,0,3.47-1.58,3.47-4.48V17.47Z" transform="translate(0 -14.79)"/><path d="M20.08,17.47h5.6l3.37,18.32h.08l4.11-18.3h6.42l3.9,18.3h.08l3.24-18.3h5.35L46.44,43.56h-6L36.37,24.5H36.3L31.79,43.56H25.84Z" transform="translate(0 -14.79)"/></g></svg>