<svg id="Layer_1" data-name="Layer 1" xmlns="http://www.w3.org/2000/svg" viewBox="0 0 94.99 60"><defs><style>.cls-1,.cls-2{fill:#ccc;}.cls-2{fill-rule:evenodd;}</style></defs><title>Untitled-1</title><path class="cls-1" d="M31,17.82a.47.47,0,0,0-.41.53l1.88,14.42a.47.47,0,0,0,.53.41l1.88-.24-2-15.35Z"/><path class="cls-1" d="M34.62,17.34l-1.17.15,2,15.36,1.17-.15c.65-.08,1-1.2.87-2.5L36.1,19.54C35.93,18.24,35.27,17.26,34.62,17.34Z"/><path class="cls-1" d="M30.45,30.58l1.17-.15-1.25-9.61L29.2,21a1.36,1.36,0,0,0-1,1.62l.87,6.68A1.36,1.36,0,0,0,30.45,30.58Z"/><path class="cls-1" d="M63.65,17.82a.47.47,0,0,1,.41.53L62.18,32.76a.47.47,0,0,1-.53.41l-1.87-.24,2-15.35Z"/><path class="cls-1" d="M60,17.34l1.17.15-2,15.36L58,32.7c-.65-.08-1-1.2-.87-2.5l1.39-10.67C58.7,18.24,59.37,17.26,60,17.34Z"/><path class="cls-1" d="M64.19,30.58,63,30.43l1.25-9.61,1.17.15a1.36,1.36,0,0,1,1,1.62l-.87,6.68A1.36,1.36,0,0,1,64.19,30.58Z"/><path class="cls-1" d="M47.32,0A16.76,16.76,0,0,0,30.58,16.74l.16.33,2.74-.33V14.59H32.28a15.19,15.19,0,0,1,30.08,0h-1.2v2.15l2.79.33.11-.33A16.76,16.76,0,0,0,47.32,0Z"/><path class="cls-1" d="M41.52,17.92a.84.84,0,0,0-.84.84V27a.84.84,0,1,0,1.67,0V18.76A.84.84,0,0,0,41.52,17.92Z"/><path class="cls-1" d="M44.42,19.8a.84.84,0,0,0-.84.84v4.44a.84.84,0,0,0,1.67,0V20.64A.84.84,0,0,0,44.42,19.8Z"/><path class="cls-1" d="M47.32,15.34a.84.84,0,0,0-.84.84V29.54a.84.84,0,1,0,1.67,0V16.18A.84.84,0,0,0,47.32,15.34Z"/><path class="cls-1" d="M50.22,17.92a.84.84,0,0,0-.84.84V27a.84.84,0,0,0,1.67,0V18.76A.84.84,0,0,0,50.22,17.92Z"/><path class="cls-1" d="M53.12,19.34a.84.84,0,0,0-.84.84v5.37a.84.84,0,0,0,1.67,0V20.17A.84.84,0,0,0,53.12,19.34Z"/><path class="cls-2" d="M63.83,15.82c6.23-4.67,13.34-5.94,20.89-5.5l1.35,29c-20,0-35.6,4.71-44.26,17,3.83-11.1,16.7-18.18,39.52-20.82q-.4-11.2-.79-22.41C74.57,12.36,69.1,13.68,63.83,15.82Z"/><path class="cls-2" d="M86.41,20.47l.18,2.93,2.31-.08q.51,10.46,1,20.93C70.58,42,54.41,45.46,42.12,56.59c15.26-9,32.63-11.33,52.31-7.58Q93.7,34.68,93,20.36Z"/><path class="cls-2" d="M94.54,50.27q.23,4.86.45,9.73c-16.8-5.9-34-8.6-52.28-3,14.2-7,30.11-7.7,47.43-3.17l.21-4.3Z"/><path class="cls-2" d="M31.17,15.82c-6.23-4.67-13.34-5.94-20.89-5.5q-.68,14.48-1.36,29c14.4,0,26.54,2.45,35.45,8.44a14.49,14.49,0,0,1,1.55-1.48c-6.67-5.4-17.34-9-32.25-10.76q.39-11.2.79-22.41C20.43,12.36,25.9,13.68,31.17,15.82Z"/><path class="cls-2" d="M8.58,20.47,8.4,23.4,6.1,23.32q-.51,10.46-1,20.93c14.46-1.69,27.16-.17,37.78,5.36q-.57.8-1.12,1.72C29.31,46.82,15.61,46.14.56,49Q1.3,34.68,2,20.36Z"/><path class="cls-2" d="M.45,50.27,0,60c13-4.57,26.27-7.22,40.08-5.56h0c.27-.56.53-1.09.81-1.6-11.16-2.82-23.21-2.33-36,1l-.22-4.3Z"/></svg>